<svg width="29" height="29" viewBox="0 0 29 29" fill="none" xmlns="http://www.w3.org/2000/svg">
<path d="M16.9263 23.713L23.4332 17.2061L26.2766 20.0494L19.7697 26.5564L16.9263 23.713Z" fill="#F12E41"/>
<path d="M23.9629 16.6765L25.7312 14.9082L28.5746 17.7516L26.8063 19.5199L23.9629 16.6765Z" fill="#F12E41"/>
<path d="M16.1676 24.4723L15.3921 28.0911L19.0109 27.3157L19.24 27.0866L16.3966 24.2432L16.1676 24.4723Z" fill="#F12E41"/>
<path d="M8.77794 27.3706H4.93235C2.21348 27.3706 0 25.4707 0 23.1361V4.23451C0 1.89988 2.21246 0 4.93235 0H21.9658C24.6858 0 26.8981 1.89991 26.8981 4.23331V8.65823L26.8993 8.6594C26.8993 9.45484 26.2542 10.0999 25.4588 10.0999C24.6633 10.0999 24.0183 9.45487 24.0183 8.6594V4.23449C24.0183 3.59414 23.1758 2.88093 21.9668 2.88093H4.93217C3.72315 2.88093 2.88069 3.59414 2.88069 4.23449V23.1361C2.88069 23.7765 3.72315 24.4897 4.93217 24.4897H8.77776C9.56499 24.5014 10.1983 25.1429 10.1983 25.9302C10.1983 26.7186 9.56499 27.3601 8.77776 27.3707L8.77794 27.3706Z" fill="#F12E41"/>
<path d="M6.44092 10.8036L6.52317 7.92383L19.1281 8.28453L19.0458 11.1644L6.44092 10.8036Z" fill="#F12E41"/>
<path d="M6.48193 15.4863H15.4858V18.3673H6.48193V15.4863Z" fill="#F12E41"/>
</svg>
