<svg width="40" height="48" viewBox="0 0 40 48" fill="none" xmlns="http://www.w3.org/2000/svg">
<path d="M0 19C0 8.50659 8.50659 0 19 0H21C31.4934 0 40 8.50659 40 19C40 29.4934 31.4934 38 21 38H19C8.50659 38 0 29.4934 0 19Z" fill="#3eb300"/>
<path d="M19.9014 47.5L13.4062 41.5H26.3966L19.9014 47.5Z" fill="#3eb300"/>
<path d="M27.3044 14.3349L27.3187 14.3206L23.7696 10.781L22.7597 11.791L24.77 13.8013C23.8744 14.1443 23.2361 15.0066 23.2361 16.0213C23.2361 17.3361 24.3032 18.4032 25.618 18.4032C25.9562 18.4032 26.2802 18.3317 26.5708 18.2031V25.0725C26.5708 25.5966 26.142 26.0253 25.618 26.0253C25.094 26.0253 24.6652 25.5966 24.6652 25.0725V20.7851C24.6652 19.7323 23.8125 18.8796 22.7597 18.8796H21.8069V12.2102C21.8069 11.1574 20.9542 10.3047 19.9014 10.3047H14.1848C13.132 10.3047 12.2793 11.1574 12.2793 12.2102V27.4545H21.807V20.3087H23.2361V25.0725C23.2361 26.3874 24.3032 27.4545 25.618 27.4545C26.9328 27.4545 27.9999 26.3874 27.9999 25.0725V16.0213C27.9999 15.3639 27.7331 14.7684 27.3044 14.3349ZM19.9014 16.974H14.1848V12.2102H19.9014V16.974ZM25.618 16.974C25.0939 16.974 24.6652 16.5453 24.6652 16.0213C24.6652 15.4972 25.0939 15.0685 25.618 15.0685C26.142 15.0685 26.5707 15.4972 26.5707 16.0213C26.5707 16.5453 26.142 16.974 25.618 16.974Z" fill="white"/>
</svg>
